<?xml version="1.0" encoding="utf-8"?>
<!-- Generator: Adobe Illustrator 24.3.0, SVG Export Plug-In . SVG Version: 6.00 Build 0)  -->
<svg version="1.1" id="Layer_1" xmlns="http://www.w3.org/2000/svg" xmlns:xlink="http://www.w3.org/1999/xlink" x="0px" y="0px"
	 viewBox="0 0 398.3 398.3" style="enable-background:new 0 0 398.3 398.3;" xml:space="preserve">
<style type="text/css">
	.st0{fill:#00C671;}
</style>
<g>
	<g>
		<path class="st0" d="M389.9,329c-1-12-6.5-22.9-15.7-30.7l-109.9-93.8c4.7,0.7,9.4,0.9,14.2,0.5c16.3-1.3,31.1-8.9,41.5-21.5
			l62.5-75.6c6.1-7.4,5.6-18.2-1.4-25.1c-3.5-3.6-8.2-5.5-13.2-5.5c0,0,0,0,0,0c-4.9,0-9.6,1.9-13.1,5.4l-61.2,61.2
			c-0.9,0.9-2.2,1.4-3.5,1.4c0,0,0,0,0,0c-1.4,0-2.7-0.6-3.7-1.5c-1-1-1.5-2.3-1.5-3.6c0-1.3,0.5-2.6,1.4-3.5l61.2-61.2
			c7.2-7.2,7.2-19-0.1-26.3l-0.7-0.7c-3.5-3.6-8.2-5.5-13.2-5.5c0,0,0,0,0,0c-4.9,0-9.6,1.9-13.1,5.4l-61.2,61.2
			c-0.9,0.9-2.2,1.4-3.5,1.4c0,0,0,0,0,0c-1.4,0-2.7-0.6-3.7-1.5c-2-2-2-5.2-0.1-7.2l61.3-61.3c3.5-3.5,5.4-8.2,5.4-13.2
			c-0.1-4.9-2-9.5-5.5-13.1c-6.8-6.8-17.6-7.4-25-1.3l-75.8,62.3c-12.6,10.4-20.3,25.2-21.6,41.5c-0.8,9.9,0.8,19.7,4.6,28.6
			L40.6,13.4c-2.2-1.9-10.1-7.8-17.9-5.2c-2.5,0.8-7,3.2-8.7,10.2c-0.1,0.2-0.1,0.5-0.2,0.7C-1.4,123,55.4,168.7,73.2,180.3
			c21.9,14.2,44.6,18,57.9,9.5c15.4-9.8,22-9,30.8-1L28.7,300c-11.3,9.4-18.1,23-18.7,37.3c-0.6,13.4,4.2,25.9,13.4,35.1
			c8.7,8.7,20.3,13.4,32.8,13.4c0.7,0,1.5,0,2.3,0c14.3-0.6,27.9-7.5,37.3-18.7l107.6-128.8l99.5,127.1c8.8,12.4,22.9,19.3,37,19.3
			c7.4,0,14.8-1.9,21.5-5.8c4.3-2.5,8.2-5.8,11.5-9.7l6.3-7.5C387,352.6,390.8,340.9,389.9,329z M122.9,176.9
			c-6.8,4.3-23.2,2.4-41.5-9.4c-15.7-10.2-65.7-50.6-52.8-143.9c0.8,0.4,1.6,0.9,2.1,1.4l161.8,138.1l-19,15.9
			C159.5,165.7,146.1,162.3,122.9,176.9z M198.1,220.8c0,0.1-0.1,0.1-0.1,0.2l-0.6,0.7L84.1,357.4c-6.7,8-16.3,12.8-26.3,13.3
			c-9.1,0.4-17.5-2.8-23.7-9c-6.2-6.2-9.4-14.6-9-23.7c0.5-10,5.3-19.6,13.3-26.3l139.3-116.3c0.2-0.2,0.4-0.3,0.6-0.5l30.6-25.5
			c0.2-0.2,0.4-0.4,0.6-0.6l6.9-5.8c1.6-1.3,2.5-3.2,2.7-5.2c0.2-2.1-0.5-4.1-1.9-5.6c-8.3-9.4-12.3-21.5-11.3-33.9
			c1-12.2,6.7-23.2,16.1-31L297.8,25c0.6-0.5,1.4-0.8,2.1-0.8c0.9,0,1.8,0.3,2.4,1c0.9,0.9,1.1,1.9,1.1,2.5c0,0.6-0.2,1.6-1,2.4
			l-61.3,61.3c-7.9,7.9-7.9,20.8,0.1,28.7c3.8,3.8,8.9,6,14.3,6h0.1c5.4,0,10.5-2.1,14.3-5.9l61.2-61.2c0.8-0.8,1.9-1,2.3-1
			c0.5,0,1.6,0.1,2.5,1.1l0.7,0.7c1.3,1.4,1.4,3.5,0.1,4.8l-61.2,61.2c-3.8,3.8-5.9,8.9-5.9,14.4c0,5.4,2.2,10.5,6,14.3
			c3.8,3.8,8.9,6,14.3,6c5.4,0,10.5-2.1,14.4-5.9l61.2-61.2c0.8-0.8,1.8-1,2.3-1c0.5,0,1.6,0.1,2.5,1c0,0,0.1,0.2,0.2,0.2
			c1.3,1.3,1.4,3.3,0.3,4.6l-62.5,75.6c-7.8,9.4-18.8,15.1-31,16.1c-12.4,1-24.4-3-33.8-11.3c-1.5-1.3-3.5-2-5.6-1.9
			c-2,0.2-3.9,1.1-5.2,2.7l-3.8,4.5c-0.1,0.1-0.1,0.1-0.2,0.2c-0.1,0.2-0.3,0.3-0.4,0.5c0,0,0,0.1-0.1,0.1L198.1,220.8z
			 M367.6,351.9l-6.4,7.5c-2.2,2.6-4.7,4.7-7.6,6.4c-12.7,7.4-29.7,3.4-38.5-9.3c-0.1-0.1-0.2-0.2-0.2-0.3L213.3,226.4l22.2-26.6
			l128.8,110c6.1,5.2,9.8,12.4,10.4,20.4C375.3,338.1,372.8,345.8,367.6,351.9z"/>
	</g>
</g>
</svg>
