<svg id="Layer_1" data-name="Layer 1" xmlns="http://www.w3.org/2000/svg" viewBox="0 0 400 400"><defs><style>.cls-1{fill:#00c671;}</style></defs><path class="cls-1" d="M45.31,221.28l-4.17-4.17a4.71,4.71,0,0,1-.68-.81l.78.78c1.33,1.31,2.67,2.55,4,3.75A3.4,3.4,0,0,0,45.31,221.28Z"/><path class="cls-1" d="M395,134.67A116.47,116.47,0,0,0,278.67,18.33,115.16,115.16,0,0,0,201,48.08a115.15,115.15,0,0,0-78.62-30.6A116.44,116.44,0,0,0,6.1,133.79,115.18,115.18,0,0,0,40.46,216.3l.78.78c1.33,1.31,2.67,2.55,4,3.75a3.4,3.4,0,0,0,0,.45,35.94,35.94,0,0,0,35.81,33.63h.72l1.3,0,.24,0a5.27,5.27,0,0,0,.57,0h.12c.38,0,.77-.07,1.14-.12s1-.12,1.48-.2a.5.5,0,0,0,.17,0c.56-.08,1.11-.18,1.67-.3-.24,1.09-.41,2.2-.54,3.31s-.2,2.24-.22,3.37V261a36,36,0,0,0,35.91,36.52l.57,0h.15c1,0,2-.09,2.92-.19a33.24,33.24,0,0,0,3.77-.57,35.63,35.63,0,0,0-.78,6.68v.12A36,36,0,0,0,166.22,340a2.82,2.82,0,0,0,.41,0,1.71,1.71,0,0,0,.32,0,35.64,35.64,0,0,0,6.7-.77c-.12.54-.22,1.09-.32,1.65s-.17,1.11-.22,1.66c-.14,1.13-.2,2.24-.24,3.39v.15A36,36,0,0,0,234.22,372L249,357.2a34.32,34.32,0,0,0,4.74.32A36.19,36.19,0,0,0,279.27,347a35.79,35.79,0,0,0,10.54-25.43,35.26,35.26,0,0,0-.76-7.35,36.11,36.11,0,0,0,7.36.75,35.94,35.94,0,0,0,35.15-43.35,35.41,35.41,0,0,0,7.39.78,35.91,35.91,0,0,0,26.45-60.24A115.31,115.31,0,0,0,395,134.67ZM97.05,234.85q-.47.47-1,.9a.58.58,0,0,0-.12.1,1.06,1.06,0,0,0-.2.17,22.4,22.4,0,0,1-30.49-1.17,22.19,22.19,0,0,1-6.58-16.39,2.81,2.81,0,0,0,0-.29s0,0,0,0v-.21c0-.32,0-.63.07-1s0-.46.08-.68,0-.32,0-.47c.05-.34.1-.67.17-1a21.69,21.69,0,0,1,.79-3,6,6,0,0,1,.36-1c.12-.32.25-.64.38-1s.27-.63.44-.95c.31-.6.64-1.21,1-1.8.24-.38.49-.77.78-1.16s.45-.64.7-1,.42-.52.64-.77c.36-.41.71-.79,1.1-1.18l16.26-16.26a14.15,14.15,0,0,1,1.3-1.18c.28-.25.57-.49.86-.71a9.76,9.76,0,0,1,.89-.66A23.7,23.7,0,0,1,88,182.31c.34-.17.68-.3,1-.44s.68-.27,1-.37a13.14,13.14,0,0,1,2.09-.62l1.06-.24c.35-.06.71-.11,1.06-.18.71-.1,1.42-.17,2.14-.2h0a19.28,19.28,0,0,1,2.15,0h0c.72,0,1.43.1,2.14.2.35.07.7.12,1.06.18l1.06.24a13.34,13.34,0,0,1,2.08.62c.34.1.68.24,1,.37s.68.27,1,.44a24.26,24.26,0,0,1,3.38,1.95c.3.21.61.42.89.66s.57.46.86.71a14.15,14.15,0,0,1,1.3,1.18,22.45,22.45,0,0,1,0,31.76Zm42.54,42.55A22.43,22.43,0,0,1,124.13,284h0a22.48,22.48,0,0,1-22.88-22.9c0-.33,0-.69.05-1s0-.56.07-.84a11.31,11.31,0,0,1,.15-1.15c0-.3.1-.59.15-.89a.62.62,0,0,0,0-.18c.1-.48.22-1,.34-1.4a.53.53,0,0,0,0-.12s0-.08,0-.12a9.1,9.1,0,0,1,.32-1c.13-.43.3-.86.47-1.28q.12-.3.27-.6c.06-.19.15-.37.23-.56s.22-.47.36-.69c.32-.64.69-1.26,1.07-1.87a7.78,7.78,0,0,1,.48-.7c.2-.31.42-.61.65-.9s.31-.38.47-.57.36-.44.54-.64l.1-.1a.55.55,0,0,1,.09-.07,4,4,0,0,0,.35-.37c.1-.12.2-.23.32-.35l16.28-16.28a22.47,22.47,0,0,1,31.77,31.78Zm42.56,42.54a22.47,22.47,0,0,1-15.47,6.6,22.46,22.46,0,0,1-16.3-38.37l16.26-16.26a22.46,22.46,0,1,1,31.77,31.77ZM242,345.14l0,0-.42.47,0,0,0,0-.49.5L224.69,362.5a22.49,22.49,0,0,1-31.77,0,22.47,22.47,0,0,1,0-31.78l16.27-16.27a22.08,22.08,0,0,1,3.43-2.81l.93-.59.42-.25.65-.35a20.18,20.18,0,0,1,3.15-1.35,8.6,8.6,0,0,1,.9-.29l.42-.12.45-.13c.25-.07.51-.12.76-.17l.17,0,.32-.07.59-.1.37-.07c.13,0,.25-.05.38-.05l.42-.07.64-.05a6.61,6.61,0,0,1,.76-.05h.68a5.07,5.07,0,0,1,.9,0h.68a6.61,6.61,0,0,1,.76.05l.64.05.42.07c.13,0,.25,0,.38.05l.37.07a4.35,4.35,0,0,1,.63.1,1.15,1.15,0,0,1,.28.07h0l1,.23.77.22h0l.87.29c.37.13.76.27,1.13.42s.67.27,1,.44.66.32,1,.49l1,.53c.64.39,1.27.8,1.87,1.25l.41.3c.17.12.33.26.49.39a22.05,22.05,0,0,1,1.71,1.53c.44.44.84.88,1.23,1.33v0c.39.45.76.91,1.11,1.4h0a13,13,0,0,1,1,1.45s0,0,0,.07c.28.49.55,1,.79,1.46,0,0,.05.09.06.14a21.89,21.89,0,0,1,2.4,10A22.23,22.23,0,0,1,242,345.14Zm112.87-92.78a22.42,22.42,0,0,1-31.77,0l-48.71-48.7-7.5-7.51a6.74,6.74,0,0,0-9.53,0,4.9,4.9,0,0,0-.56.66h0a6,6,0,0,0-.67.59,6.7,6.7,0,0,0,0,9.51l7.34,7.34.15.17.17.15,48.55,48.56a22.47,22.47,0,1,1-31.78,31.78l-56.21-56.21a6.71,6.71,0,0,0-9.52,0,6.64,6.64,0,0,0-.55.64v0a4.36,4.36,0,0,0-.71.59,6.73,6.73,0,0,0,0,9.52l56.21,56.22a22.43,22.43,0,0,1-11.23,37.84,35.85,35.85,0,0,0-1.29-29.24,34.41,34.41,0,0,0-1.79-3.18c-.21-.35-.43-.69-.67-1-.34-.52-.71-1-1.09-1.53s-.78-1-1.18-1.46a29.65,29.65,0,0,0-2-2.18c-.79-.79-1.61-1.53-2.45-2.22l-.54-.45c-.86-.69-1.74-1.32-2.63-1.92-.28-.2-.59-.37-.87-.56l-.64-.39a36.38,36.38,0,0,0-6.37-3c-.27-.1-.55-.18-.84-.27s-.54-.17-.82-.25c-.69-.2-1.38-.39-2.09-.56s-1.4-.3-2.11-.42-1.41-.22-2.12-.3-1.43-.13-2.14-.17c0,0,0,0-.05,0-1.16-.05-2.3-.05-3.46,0,0,0,0,0,0,0-.48,0-.93.05-1.4.1l-1.4.15-1.4.21c-.47.08-.92.16-1.38.27v0a35.94,35.94,0,0,0-9.78-32.78,35.85,35.85,0,0,0-32.78-9.73c0-.17.07-.34.1-.51.09-.42.16-.84.22-1.24.12-.78.22-1.55.29-2.32.1-1.1.15-2.21.15-3.34a35.43,35.43,0,0,0-2.81-13.94,35.83,35.83,0,0,0-7.71-11.46c-.88-.88-1.79-1.7-2.73-2.48-.42-.33-.86-.67-1.3-1s-.89-.64-1.33-.94-.8-.54-1.22-.8l-.93-.55c-.2-.12-.4-.24-.61-.34a12.9,12.9,0,0,0-1.17-.6c-.59-.32-1.2-.59-1.79-.85l-1-.42a1.13,1.13,0,0,0-.22-.08c-.4-.17-.81-.32-1.21-.45-.56-.21-1.1-.38-1.67-.54s-.92-.27-1.38-.37-.67-.17-1-.24A7.83,7.83,0,0,0,147,210c-.29-.06-.57-.12-.86-.16-.55-.1-1.13-.18-1.7-.25l-1.09-.12c-.49,0-1-.1-1.45-.11l-.56,0c-.74,0-1.48,0-2.2,0-.34,0-.66,0-1,0-1,0-1.93.13-2.89.26-.34,0-.64.09-1,.16-.55.08-1.09.16-1.63.28a36.14,36.14,0,0,0,.62-4.19c0-.45.07-.93.09-1.4s0-1.18,0-1.78A35.95,35.95,0,0,0,72,177.28L55.75,193.56c-.41.4-.79.8-1.16,1.23s-.56.62-.83.94-.37.42-.54.64a22.45,22.45,0,0,0-1.43,1.9c-.15.2-.28.4-.42.61A31.86,31.86,0,0,0,49,203c-.18.35-.35.72-.52,1.09a7.56,7.56,0,0,0-.33.76,101.8,101.8,0,0,1-28.54-71.08,102.86,102.86,0,0,1,172-76.18c-.31.35-.63.72-.93,1.08l-.13.15L139.61,109.7c-.44.44-.86.89-1.28,1.35s-.81.91-1.18,1.38-.76.94-1.11,1.43-.71,1-1,1.48c-.66,1-1.26,2-1.82,3.06-.2.39-.4.79-.59,1.18a36.7,36.7,0,0,0-1.5,3.64c-.2.55-.37,1.11-.53,1.67a35.87,35.87,0,0,0-1.45,8.45s0,0,0,0c-.05,1.16-.05,2.3,0,3.47,0,0,0,0,0,0,0,.43,0,.87.08,1.31.09.84.19,1.68.32,2.52,0,0,0,0,0,0,.22,1.27.49,2.51.81,3.74.24.84.49,1.67.77,2.49a36.7,36.7,0,0,0,1.5,3.64c.19.39.39.79.59,1.18s.57,1,.88,1.55.6,1,.94,1.51c0,0,.05.09.08.14a37.33,37.33,0,0,0,3,3.92c.48.54,1,1.06,1.49,1.57a35.93,35.93,0,0,0,50.81,0l52.13-52.13L351.24,217.06a5.14,5.14,0,0,0,.51.45l.07.05,3,3A22.51,22.51,0,0,1,354.85,252.36Zm1-49.78s0,0,0,0l-48.39-48.37L247.3,94.11a6.72,6.72,0,0,0-9.51,0L180.9,151a22.48,22.48,0,0,1-31.78,0,23.08,23.08,0,0,1-3.59-4.67,18.1,18.1,0,0,1-.91-1.75,9.87,9.87,0,0,1-.43-1q-.21-.49-.39-1a20.91,20.91,0,0,1-.61-2.09c-.08-.36-.17-.71-.23-1.06s-.14-.71-.19-1.06c-.1-.71-.17-1.42-.2-2.14v0c0-.35,0-.71,0-1.06s0-.72,0-1.09c0-.73.1-1.43.2-2.14,0-.37.12-.73.19-1.08a.41.41,0,0,0,0-.12c.07-.33.14-.69.24-1a13.38,13.38,0,0,1,.61-2,10.11,10.11,0,0,1,.37-1c.28-.67.59-1.34.92-2,.1-.22.24-.44.36-.66s.16-.29.25-.42c.18-.3.38-.62.59-.93a22,22,0,0,1,2.81-3.43l51.06-51.06L206,62.39a.89.89,0,0,0,.14-.13,5.28,5.28,0,0,0,.49-.59,1.18,1.18,0,0,0,.17-.22.9.9,0,0,1,.05-.09.72.72,0,0,0,.11-.15,3,3,0,0,0,.31-.52h0A102.84,102.84,0,0,1,355.89,202.58Z"/><path class="cls-1" d="M167,340a.34.34,0,0,1-.14,0,.52.52,0,0,1-.18,0A1.71,1.71,0,0,0,167,340Z"/><path class="cls-1" d="M219.1,294.91c-.47.08-.92.16-1.38.27v0C218.18,295.06,218.63,295,219.1,294.91Z"/><path class="cls-1" d="M222.55,308l-.25.05-.17,0Z"/><path class="cls-1" d="M226.81,294.45c-1.16-.05-2.3-.05-3.46,0,.57,0,1.14-.05,1.73-.05S226.24,294.42,226.81,294.45Z"/><path class="cls-1" d="M228,308.07l-.17,0-.25-.05Z"/><path class="cls-1" d="M243.35,299.38a36.38,36.38,0,0,0-6.37-3A33.49,33.49,0,0,1,243.35,299.38Z"/><path class="cls-1" d="M129.12,133.39c-.05,1.16-.05,2.3,0,3.47,0-.58-.05-1.15-.05-1.74S129.08,134,129.12,133.39Z"/><path class="cls-1" d="M130.33,144.53a33.62,33.62,0,0,1-.81-3.74C129.74,142.06,130,143.3,130.33,144.53Z"/><path class="cls-1" d="M135,115.34c-.66,1-1.26,2-1.82,3.06A30.8,30.8,0,0,1,135,115.34Z"/><path class="cls-1" d="M165.4,219.82v0c-.88-.88-1.79-1.7-2.73-2.48A34.83,34.83,0,0,1,165.4,219.82Z"/><path class="cls-1" d="M124.4,297.45a28.25,28.25,0,0,0,2.92-.19C126.36,297.36,125.38,297.43,124.4,297.45Z"/><path class="cls-1" d="M219.54,308.56l-.45.13c.4-.11.8-.21,1.21-.3C220.05,308.44,219.79,308.49,219.54,308.56Zm9.87-.27a4.35,4.35,0,0,0-.63-.1c.31.05.61.1.91.17A1.15,1.15,0,0,0,229.41,308.29Zm-1-.17c-.13,0-.25-.05-.38-.05.25,0,.5.09.75.12Zm-.8-.12L227,308a6.61,6.61,0,0,0-.76-.05H226c.61,0,1.23.09,1.82.15l.17,0Zm-2.53-.13a3.39,3.39,0,0,0-.45,0h.9A3.39,3.39,0,0,0,225.08,307.87Zm-1.13,0a6.61,6.61,0,0,0-.76.05l-.64.05-.42.07.17,0c.59-.06,1.21-.11,1.82-.15Zm-2.2.22-.37.07c.27,0,.5-.08.75-.12C222,308.07,221.88,308.11,221.75,308.12Zm9,.47-1-.23c.6.13,1.19.28,1.78.45Zm0,0-1-.23c.6.13,1.19.28,1.78.45Zm-1.33-.3a4.35,4.35,0,0,0-.63-.1c.31.05.61.1.91.17A1.15,1.15,0,0,0,229.41,308.29Zm-1-.17c-.13,0-.25-.05-.38-.05.25,0,.5.09.75.12Zm-.8-.12L227,308a6.61,6.61,0,0,0-.76-.05H226c.61,0,1.23.09,1.82.15l.17,0Zm-2.53-.13a3.39,3.39,0,0,0-.45,0h.9A3.39,3.39,0,0,0,225.08,307.87Zm-1.13,0a6.61,6.61,0,0,0-.76.05l-.64.05-.42.07.17,0c.59-.06,1.21-.11,1.82-.15Zm-2.2.22-.37.07c.27,0,.5-.08.75-.12C222,308.07,221.88,308.11,221.75,308.12Zm-2.21.44-.45.13c.4-.11.8-.21,1.21-.3C220.05,308.44,219.79,308.49,219.54,308.56Zm-4.92,1.89a23.51,23.51,0,0,1,3.15-1.35A20.18,20.18,0,0,0,214.62,310.45Zm0,0a23.51,23.51,0,0,1,3.15-1.35A20.18,20.18,0,0,0,214.62,310.45Zm4.92-1.89-.45.13c.4-.11.8-.21,1.21-.3C220.05,308.44,219.79,308.49,219.54,308.56Zm2.21-.44-.37.07c.27,0,.5-.08.75-.12C222,308.07,221.88,308.11,221.75,308.12Zm2.2-.22a6.61,6.61,0,0,0-.76.05l-.64.05-.25.05c.59-.06,1.21-.11,1.82-.15Zm1.13,0a3.39,3.39,0,0,0-.45,0h.9A3.39,3.39,0,0,0,225.08,307.87Zm2.53.13L227,308a6.61,6.61,0,0,0-.76-.05H226c.61,0,1.23.09,1.82.15Zm.8.12c-.13,0-.25-.05-.38-.05.25,0,.5.09.75.12Zm1,.17a4.35,4.35,0,0,0-.63-.1c.31.05.61.1.91.17A1.15,1.15,0,0,0,229.41,308.29Zm1.33.3-1-.23c.6.13,1.19.28,1.78.45Z"/><path class="cls-1" d="M102.79,180.88a19.76,19.76,0,0,1,2.08.62A13.34,13.34,0,0,0,102.79,180.88ZM90,181.5a19.24,19.24,0,0,1,2.09-.62A13.14,13.14,0,0,0,90,181.5Zm12.8-.62a19.76,19.76,0,0,1,2.08.62A13.34,13.34,0,0,0,102.79,180.88ZM90,181.5a19.24,19.24,0,0,1,2.09-.62A13.14,13.14,0,0,0,90,181.5Zm12.8-.62a19.76,19.76,0,0,1,2.08.62A13.34,13.34,0,0,0,102.79,180.88ZM90,181.5a19.24,19.24,0,0,1,2.09-.62A13.14,13.14,0,0,0,90,181.5Zm12.8-.62a19.76,19.76,0,0,1,2.08.62A13.34,13.34,0,0,0,102.79,180.88ZM90,181.5a19.24,19.24,0,0,1,2.09-.62A13.14,13.14,0,0,0,90,181.5Zm12.8-.62a19.76,19.76,0,0,1,2.08.62A13.34,13.34,0,0,0,102.79,180.88ZM90,181.5a19.24,19.24,0,0,1,2.09-.62A13.14,13.14,0,0,0,90,181.5Zm12.8-.62a19.76,19.76,0,0,1,2.08.62A13.34,13.34,0,0,0,102.79,180.88ZM90,181.5a19.24,19.24,0,0,1,2.09-.62A13.14,13.14,0,0,0,90,181.5Zm12.8-.62a19.76,19.76,0,0,1,2.08.62A13.34,13.34,0,0,0,102.79,180.88ZM90,181.5a19.24,19.24,0,0,1,2.09-.62A13.14,13.14,0,0,0,90,181.5Zm12.8-.62a19.76,19.76,0,0,1,2.08.62A13.34,13.34,0,0,0,102.79,180.88ZM90,181.5a19.24,19.24,0,0,1,2.09-.62A13.14,13.14,0,0,0,90,181.5Zm12.8-.62a19.76,19.76,0,0,1,2.08.62A13.34,13.34,0,0,0,102.79,180.88ZM90,181.5a19.24,19.24,0,0,1,2.09-.62A13.14,13.14,0,0,0,90,181.5Zm12.8-.62a19.76,19.76,0,0,1,2.08.62A13.34,13.34,0,0,0,102.79,180.88ZM90,181.5a19.24,19.24,0,0,1,2.09-.62A13.14,13.14,0,0,0,90,181.5Zm12.8-.62a19.76,19.76,0,0,1,2.08.62A13.34,13.34,0,0,0,102.79,180.88ZM90,181.5a19.24,19.24,0,0,1,2.09-.62A13.14,13.14,0,0,0,90,181.5Zm12.8-.62a19.76,19.76,0,0,1,2.08.62A13.34,13.34,0,0,0,102.79,180.88ZM90,181.5a19.24,19.24,0,0,1,2.09-.62A13.14,13.14,0,0,0,90,181.5Zm12.8-.62a19.76,19.76,0,0,1,2.08.62A13.34,13.34,0,0,0,102.79,180.88ZM90,181.5a19.24,19.24,0,0,1,2.09-.62A13.14,13.14,0,0,0,90,181.5Zm12.8-.62a19.76,19.76,0,0,1,2.08.62A13.34,13.34,0,0,0,102.79,180.88ZM90,181.5a19.24,19.24,0,0,1,2.09-.62A13.14,13.14,0,0,0,90,181.5Zm12.8-.62a19.76,19.76,0,0,1,2.08.62A13.34,13.34,0,0,0,102.79,180.88ZM90,181.5a19.24,19.24,0,0,1,2.09-.62A13.14,13.14,0,0,0,90,181.5ZM58.7,218.17a2.81,2.81,0,0,1,0,.29c0-.1,0-.22,0-.32S58.71,218.15,58.7,218.17ZM90,181.5a19.24,19.24,0,0,1,2.09-.62A13.14,13.14,0,0,0,90,181.5Zm12.8-.62a19.76,19.76,0,0,1,2.08.62A13.34,13.34,0,0,0,102.79,180.88ZM90,181.5a19.24,19.24,0,0,1,2.09-.62A13.14,13.14,0,0,0,90,181.5Zm12.8-.62a19.76,19.76,0,0,1,2.08.62A13.34,13.34,0,0,0,102.79,180.88ZM90,181.5a19.24,19.24,0,0,1,2.09-.62A13.14,13.14,0,0,0,90,181.5Zm12.8-.62a19.76,19.76,0,0,1,2.08.62A13.34,13.34,0,0,0,102.79,180.88ZM90,181.5a19.24,19.24,0,0,1,2.09-.62A13.14,13.14,0,0,0,90,181.5Zm12.8-.62a19.76,19.76,0,0,1,2.08.62A13.34,13.34,0,0,0,102.79,180.88ZM90,181.5a19.24,19.24,0,0,1,2.09-.62A13.14,13.14,0,0,0,90,181.5Zm12.8-.62a19.76,19.76,0,0,1,2.08.62A13.34,13.34,0,0,0,102.79,180.88ZM90,181.5a19.24,19.24,0,0,1,2.09-.62A13.14,13.14,0,0,0,90,181.5Zm12.8-.62a19.76,19.76,0,0,1,2.08.62A13.34,13.34,0,0,0,102.79,180.88ZM90,181.5a19.24,19.24,0,0,1,2.09-.62A13.14,13.14,0,0,0,90,181.5Zm12.8-.62a19.76,19.76,0,0,1,2.08.62A13.34,13.34,0,0,0,102.79,180.88ZM90,181.5a19.24,19.24,0,0,1,2.09-.62A13.14,13.14,0,0,0,90,181.5Zm12.8-.62a19.76,19.76,0,0,1,2.08.62A13.34,13.34,0,0,0,102.79,180.88ZM90,181.5a19.24,19.24,0,0,1,2.09-.62A13.14,13.14,0,0,0,90,181.5Zm12.8-.62a19.76,19.76,0,0,1,2.08.62A13.34,13.34,0,0,0,102.79,180.88ZM90,181.5a19.24,19.24,0,0,1,2.09-.62A13.14,13.14,0,0,0,90,181.5Zm12.8-.62a19.76,19.76,0,0,1,2.08.62A13.34,13.34,0,0,0,102.79,180.88ZM90,181.5a19.24,19.24,0,0,1,2.09-.62A13.14,13.14,0,0,0,90,181.5Zm12.8-.62a19.76,19.76,0,0,1,2.08.62A13.34,13.34,0,0,0,102.79,180.88ZM90,181.5a19.24,19.24,0,0,1,2.09-.62A13.14,13.14,0,0,0,90,181.5Zm12.8-.62a19.76,19.76,0,0,1,2.08.62A13.34,13.34,0,0,0,102.79,180.88ZM90,181.5a19.24,19.24,0,0,1,2.09-.62A13.14,13.14,0,0,0,90,181.5Zm12.8-.62a19.76,19.76,0,0,1,2.08.62A13.34,13.34,0,0,0,102.79,180.88ZM90,181.5a19.24,19.24,0,0,1,2.09-.62A13.14,13.14,0,0,0,90,181.5Zm12.8-.62a19.76,19.76,0,0,1,2.08.62A13.34,13.34,0,0,0,102.79,180.88ZM90,181.5a19.24,19.24,0,0,1,2.09-.62A13.14,13.14,0,0,0,90,181.5Zm12.8-.62a19.76,19.76,0,0,1,2.08.62A13.34,13.34,0,0,0,102.79,180.88Z"/><path class="cls-1" d="M355.89,202.58s0,0,0,0l-48.39-48.37a5.4,5.4,0,0,1,.69.59Z"/></svg>