<svg id="Layer_1" data-name="Layer 1" xmlns="http://www.w3.org/2000/svg" viewBox="0 0 400 400"><defs><style>.cls-1{fill:#00c671;}</style></defs><path class="cls-1" d="M385.06,205.91H299.14V13.52A7.48,7.48,0,0,0,291.66,6H104.87a7.48,7.48,0,0,0-7.47,7.48v104.6H11.48A7.46,7.46,0,0,0,4,125.59V358.71a35.89,35.89,0,0,0,35.86,35.86h316.8a35.89,35.89,0,0,0,35.86-35.86V213.38A7.46,7.46,0,0,0,385.06,205.91ZM97.4,379.63H39.87A20.94,20.94,0,0,1,19,358.71V133.06H97.4Zm113.94,0h-28v-56h28Zm7.48-71h-43a7.47,7.47,0,0,0-7.47,7.47v63.51h-56V21H284.19V379.63h-57.9V316.12A7.47,7.47,0,0,0,218.82,308.65Zm158.77,50.06a20.94,20.94,0,0,1-20.92,20.92H299.14V220.85h78.45Z"/><path class="cls-1" d="M233.76,112.52a7.47,7.47,0,0,1-7.47-7.48V73.29a7.47,7.47,0,0,1,14.94,0V105A7.47,7.47,0,0,1,233.76,112.52Z"/><path class="cls-1" d="M160.91,112.52a7.47,7.47,0,0,1-7.47-7.48V73.29a7.47,7.47,0,1,1,14.94,0V105A7.47,7.47,0,0,1,160.91,112.52Z"/><path class="cls-1" d="M233.76,189.1a7.47,7.47,0,0,1-7.47-7.47V149.87a7.47,7.47,0,0,1,14.94,0v31.76A7.47,7.47,0,0,1,233.76,189.1Z"/><path class="cls-1" d="M160.91,189.1a7.47,7.47,0,0,1-7.47-7.47V149.87a7.47,7.47,0,1,1,14.94,0v31.76A7.47,7.47,0,0,1,160.91,189.1Z"/><path class="cls-1" d="M233.76,265.68a7.46,7.46,0,0,1-7.47-7.47V226.46a7.47,7.47,0,0,1,14.94,0v31.75A7.46,7.46,0,0,1,233.76,265.68Z"/><path class="cls-1" d="M160.91,265.68a7.46,7.46,0,0,1-7.47-7.47V226.46a7.47,7.47,0,0,1,14.94,0v31.75A7.46,7.46,0,0,1,160.91,265.68Z"/><path class="cls-1" d="M73.12,191.9H43.23a7.47,7.47,0,0,1,0-14.94H73.12a7.47,7.47,0,0,1,0,14.94Z"/><path class="cls-1" d="M73.12,234.86H43.23a7.47,7.47,0,1,1,0-14.94H73.12a7.47,7.47,0,0,1,0,14.94Z"/><path class="cls-1" d="M73.12,276H43.23a7.48,7.48,0,0,1,0-14.95H73.12a7.48,7.48,0,0,1,0,14.95Z"/><path class="cls-1" d="M353.31,258.21H323.42a7.47,7.47,0,0,1,0-14.94h29.89a7.47,7.47,0,0,1,0,14.94Z"/><path class="cls-1" d="M353.31,301.17H323.42a7.47,7.47,0,0,1,0-14.94h29.89a7.47,7.47,0,0,1,0,14.94Z"/><path class="cls-1" d="M353.31,342.27H323.42a7.48,7.48,0,0,1,0-14.95h29.89a7.48,7.48,0,0,1,0,14.95Z"/></svg>