<svg id="Layer_1" data-name="Layer 1" xmlns="http://www.w3.org/2000/svg" viewBox="0 0 400 400"><defs><style>.cls-1{fill:#00c671;}</style></defs><path class="cls-1" d="M198.41,311.23l-43.08-43.08a34.14,34.14,0,0,1-10.05-24.28A36.21,36.21,0,0,1,157.34,217a29.29,29.29,0,0,1,23.25-7.43,30.72,30.72,0,0,1,18,8.52c4.45-3.79,10.06-7.38,17.45-8.5a28.48,28.48,0,0,1,23.06,6.95,36.43,36.43,0,0,1,12.44,27.31,34.14,34.14,0,0,1-10.05,24.28ZM177,224.86a14.24,14.24,0,0,0-9.38,3.79,20.82,20.82,0,0,0-6.81,15.22,18.71,18.71,0,0,0,5.51,13.31l32.12,32.12,32.12-32.11a18.71,18.71,0,0,0,5.52-13.32A21,21,0,0,0,229,228.32a13.15,13.15,0,0,0-10.63-3.38c-5.89.9-10.45,5.46-14.47,9.48l-5.48,5.48-5.49-5.48c-.66-.66-1.3-1.33-2-2-3.73-3.88-6.43-6.69-12.34-7.44A13.76,13.76,0,0,0,177,224.86Z"/><path class="cls-1" d="M381.36,229.82l-43.29-70.65a34.71,34.71,0,0,0-59.21,0l-9.4,15.35s0,.06,0,.1a3.6,3.6,0,0,0-.39.72,1.15,1.15,0,0,0-.1.23,5.47,5.47,0,0,0-.23.64,6.66,6.66,0,0,0-.31,1.32,4.25,4.25,0,0,0-.06.87,1,1,0,0,0,0,.35,4.25,4.25,0,0,0,.06.87,6.35,6.35,0,0,0,.31,1.32,5.47,5.47,0,0,0,.23.64,1.15,1.15,0,0,0,.1.23,3.6,3.6,0,0,0,.39.72s0,.06,0,.1l31.3,51.05a118.33,118.33,0,0,1,5.31,114.89.91.91,0,0,0-.08.17,7.26,7.26,0,0,0-.33.78c-.08.21-.13.41-.19.6a2.11,2.11,0,0,0-.12.48c0,.22-.08.43-.1.64a6.4,6.4,0,0,0-.05.88c0,.13,0,.29,0,.42a3.13,3.13,0,0,0,0,.43,5.29,5.29,0,0,0,.22,1.12c0,.12.06.25.09.37a4,4,0,0,0,.26.68.53.53,0,0,0,0,.12,6.66,6.66,0,0,0,.49.91,5.66,5.66,0,0,0,.44.64,1.69,1.69,0,0,0,.3.36.28.28,0,0,0,.05.08,10.39,10.39,0,0,0,1.4,1.24,0,0,0,0,0,0,0,9.1,9.1,0,0,0,1,.56,4.37,4.37,0,0,0,.71.31,6,6,0,0,0,1.09.33,4,4,0,0,0,.43.08l.44.06c.25,0,.51,0,.76,0a6.07,6.07,0,0,0,.85-.06.71.71,0,0,0,.21,0,85.48,85.48,0,0,0,67.35-130ZM370.47,307a69.14,69.14,0,0,1-44.92,35.44A133.63,133.63,0,0,0,314,225.57l-28.82-47,6.91-11.29a19.21,19.21,0,0,1,32.78,0l43.3,70.64A69.39,69.39,0,0,1,370.47,307Z"/><path class="cls-1" d="M199.22,393A102.31,102.31,0,0,1,112,237.2l6.61,4.05L112,237.2l52.65-85.89a40.54,40.54,0,0,1,69.14,0l52.65,85.89A102.3,102.3,0,0,1,199.22,393Zm0-245.51a24.88,24.88,0,0,0-21.35,11.95L125.22,245.3h0A86.8,86.8,0,1,0,275,333.07a85.78,85.78,0,0,0-1.74-87.77l-52.65-85.89A24.88,24.88,0,0,0,199.22,147.46Z"/><path class="cls-1" d="M197.28,116.78a55.24,55.24,0,1,1,55.24-55.23A55.3,55.3,0,0,1,197.28,116.78Zm0-95A39.73,39.73,0,1,0,237,61.55,39.78,39.78,0,0,0,197.28,21.82Z"/><path class="cls-1" d="M306.87,132.87a46.81,46.81,0,1,1,46.81-46.8A46.86,46.86,0,0,1,306.87,132.87Zm0-78.11a31.31,31.31,0,1,0,31.3,31.31A31.35,31.35,0,0,0,306.87,54.76Z"/><path class="cls-1" d="M131.36,175.4a4.59,4.59,0,0,0-.27-1.22,5.2,5.2,0,0,0-.25-.76l-.12-.23c-.11-.26-.25-.51-.38-.76,0,0,0,0,0-.06l-8.08-13.2a34.71,34.71,0,0,0-59.21,0l-43.3,70.65A85.08,85.08,0,0,0,7,274.34c0,43.84,33.94,81.23,77.34,85.28h.07l.33,0c.22,0,.41,0,.62,0h.08c.25,0,.51,0,.74,0l.48,0a7.51,7.51,0,0,0,2.35-.8,4.34,4.34,0,0,0,.73-.42l.16-.1a9.09,9.09,0,0,0,.81-.68,4.7,4.7,0,0,0,.72-.76,7.93,7.93,0,0,0,.56-.79.15.15,0,0,0,0-.08,6.66,6.66,0,0,0,.49-.91.13.13,0,0,0,0-.06,6.6,6.6,0,0,0,.35-1,6.21,6.21,0,0,0,.22-1c0-.2.05-.37.05-.55v-.07a8.06,8.06,0,0,0,0-1.3c0-.29-.1-.58-.16-.87a8.15,8.15,0,0,0-.25-.86,7.34,7.34,0,0,0-.35-.83l-.06-.14a120.07,120.07,0,0,1-12.38-52.71,118.61,118.61,0,0,1,17.77-62l32.62-53.21s0,0,0-.07a7.76,7.76,0,0,0,.46-.91,4.79,4.79,0,0,0,.31-.9,4,4,0,0,0,.25-1.14,5.81,5.81,0,0,0,.08-1A5.7,5.7,0,0,0,131.36,175.4Zm-46.9,50.17a132.74,132.74,0,0,0-11.88,116,70.67,70.67,0,0,1-50.1-67.27,68.87,68.87,0,0,1,10.45-36.42l43.29-70.64a19.21,19.21,0,0,1,32.78,0l5.6,9.14Z"/><path class="cls-1" d="M93.12,352.44v.18a1.44,1.44,0,0,1-.05.37C93.09,352.79,93.12,352.62,93.12,352.44Z"/><path class="cls-1" d="M91,132.87a46.81,46.81,0,1,1,46.8-46.8A46.86,46.86,0,0,1,91,132.87Zm0-78.11a31.31,31.31,0,1,0,31.3,31.31A31.34,31.34,0,0,0,91,54.76Z"/></svg>